Coordinates
version=1
nRows=7
nColumns=33
inDegrees=yes

Units are S.I. units (second, meters, Newtons, ...)
Angles are in degrees.

endheader
time	ground_thorax_rot_x	ground_thorax_rot_y	ground_thorax_rot_z	ground_thorax_tx	ground_thorax_ty	ground_thorax_tz	clav_prot_r	clav_elev_r	scapula_abduction_r	scapula_elevation_r	scapula_upward_rot_r	scapula_winging_r	shoulder_elv_r	plane_of_elev_r	axial_rot_r	elbow_flexion_r	pro_sup_r	wrist_flex_r	wrist_dev_r	clav_prot_l	clav_elev_l	scapula_abduction_l	scapula_elevation_l	scapula_upward_rot_l	scapula_winging_l	shoulder_elv_l	plane_of_elev_l	axial_rot_l	elbow_flexion_l	pro_sup_l	wrist_flex_l	wrist_dev_l
      2.40000000	    -38.65216119	    -17.21104356	     21.91790970	   -148.67878801	    826.19393829	     10.51892124	     10.33259708	    -45.00000000	     42.55580270	    -45.00000000	    -39.79090087	  -3339.90543375	  -2264.31211369	    146.88363969	   -128.63014312	   2532.77017233	    387.83454793	     19.07686281	      7.27641155	     16.47679102	     39.01816849	    -40.96560614	    -45.00000000	    -43.18832216	   2245.42055764	  -4607.44868106	     26.42695165	     -7.77502412	      9.49577479	     25.55900401	      7.40559820	    -22.05056863
      2.41000000	    -38.69439306	    -17.04641700	     21.80115844	   -153.37069283	    827.72264030	     10.51231671	     10.31954084	    -45.00000000	     42.50943706	    -45.00000000	    -41.00284274	  -3340.04712725	  -2264.05870763	    146.80860329	   -128.56731892	   2532.95903483	    389.28231412	     18.94371329	      6.81885149	     16.18937390	     39.11717580	    -40.50990809	    -45.00000000	    -43.35769964	   2245.40745246	  -4607.03685430	     26.45217281	     -6.92027168	      9.33459646	     25.47583872	      7.69952285	    -22.26259069
      2.42000000	    -38.81099597	    -16.58606305	     21.37895351	   -158.03564999	    829.16614077	     10.51425337	     10.42231905	    -45.00000000	     42.34909681	    -45.00000000	    -41.62971731	  -3340.18339509	  -2263.80504659	    146.71965688	   -128.70253685	   2533.06342395	    391.29196718	     18.88177116	      6.56947253	     15.97425639	     38.98705222	    -40.41733764	    -45.00000000	    -43.66654643	   2245.59615274	  -4606.83069707	     26.54275502	     -6.47433645	      9.36822651	     25.52382784	      7.81892117	    -22.43865730
      2.43000000	    -38.96270780	    -16.05595646	     20.92169425	   -162.66553887	    830.53826159	     10.52501143	     10.53732696	    -45.00000000	     42.23978443	    -45.00000000	    -42.06898897	  -3340.34858646	  -2263.64369452	    146.69398549	   -128.70563316	   2533.23286054	    393.87310808	     18.86244146	      6.36471939	     15.85716681	     38.80918391	    -40.42780737	    -45.00000000	    -43.99404996	   2245.80441900	  -4606.67515108	     26.59867537	     -6.27998394	      9.39298970	     25.63056087	      7.78221020	    -22.54452490
      2.44000000	    -39.18073889	    -15.34919023	     20.26237596	   -167.23745092	    831.85307482	     10.54786479	     10.47220847	    -45.00000000	     42.35334336	    -45.00000000	    -41.03535266	  -3340.70995854	  -2263.81171346	    146.90603832	   -127.42934223	   2533.34204053	    395.93330403	     19.02702536	      6.51297837	     16.24907217	     38.67341779	    -40.85794789	    -45.00000000	    -43.87279800	   2246.29323107	  -4606.97420652	     26.24590238	     -8.07728552	      9.65946158	     25.89195858	      6.75372238	    -22.25401833
      2.45000000	    -39.20875612	    -15.19901034	     20.17109707	   -171.73370764	    833.12996447	     10.58593907	     10.63826308	    -45.00000000	     42.11399196	    -45.00000000	    -43.03529694	  -3340.68923022	  -2263.45518502	    146.73176368	   -128.17218192	   2533.74543313	    399.50824873	     18.77423693	      5.85396001	     15.71836685	     38.60798293	    -40.33339330	    -45.00000000	    -44.58891401	   2246.15649222	  -4606.34145600	     26.55583039	     -6.36630226	      9.39413905	     25.67316652	      7.53467748	    -22.62379664
      2.46000000	    -39.35884531	    -14.68012419	     19.66243753	   -176.13675954	    834.37323183	     10.64301011	     10.52368932	    -45.00000000	     42.20836138	    -45.00000000	    -42.02445381	  -3341.07555936	  -2263.59750745	    146.90722801	   -126.61545313	   2533.98282546	    402.16471763	     18.93300702	      5.89733754	     16.12916287	     38.54397794	    -40.61986022	    -45.00000000	    -44.45523846	   2246.55876924	  -4606.68038332	     26.08864110	     -8.45528401	      9.66739259	     25.89470701	      6.43189656	    -22.26401897
